<?xml version="1.0" encoding="UTF-8"?>
<!DOCTYPE svg PUBLIC "-//W3C//DTD SVG 1.1//EN" "http://www.w3.org/Graphics/SVG/1.1/DTD/svg11.dtd">
<!-- Creator: CorelDRAW 2020 (64-Bit) -->
<svg xmlns="http://www.w3.org/2000/svg" xml:space="preserve" width="500px" height="500px" version="1.1" style="shape-rendering:geometricPrecision; text-rendering:geometricPrecision; image-rendering:optimizeQuality; fill-rule:evenodd; clip-rule:evenodd"
viewBox="0 0 90.12 90.12"
 xmlns:xlink="http://www.w3.org/1999/xlink"
 xmlns:xodm="http://www.corel.com/coreldraw/odm/2003">
 <defs>
  <style type="text/css">
   <![CDATA[
    .str4 {stroke:#898989;stroke-width:0.72;stroke-miterlimit:22.9256}
    .str2 {stroke:#898989;stroke-width:1.08;stroke-miterlimit:22.9256}
    .str1 {stroke:#898989;stroke-width:1.79;stroke-miterlimit:22.9256}
    .str3 {stroke:#898989;stroke-width:0.54;stroke-miterlimit:22.9256}
    .str5 {stroke:#5B5B5B;stroke-width:0.9;stroke-miterlimit:22.9256}
    .str0 {stroke:#898989;stroke-width:0.07;stroke-miterlimit:22.9256}
    .fil1 {fill:none}
    .fil2 {fill:#FEFEFE}
    .fil0 {fill:#898989}
   ]]>
  </style>
 </defs>
 <g id="Слой_x0020_1">
  <metadata id="CorelCorpID_0Corel-Layer"/>
  <g id="река">
   <path class="fil0 str0" d="M45.58 89.4c-0.05,-0.01 -0.03,-0.01 -0.06,-0.01l-1.67 -1.34 -0.24 -0.16 -0.25 -0.45 -0.01 -0.01 -0.09 -0.22 -0.01 -0.02 -0.42 -0.25 -0.41 -0.32 0 -0.02 -0.11 -0.53 0.06 -0.56 0.17 -0.35 0.01 -0.5 -0.35 -0.26 0 -0.02 -0.09 -0.25 0 -0.02 0.28 -0.28c0.01,-0.01 0.01,-0.02 0.02,-0.02l0.07 -0.36 -0.12 -0.79 -0.14 -1.07c0,0 -0.02,-0.05 -0.02,-0.05l-0.21 -1.75 -0.09 -0.22c0,-0.03 0,-0.05 0,-0.08l0.04 -0.56c0,-0.04 0,-0.05 -0.04,-0.06l-0.16 -0.62 0.17 -0.22 -0.01 -0.98 -0.34 -0.13 -0.01 -0.02 -0.22 -0.35 -0.09 -0.69c0.02,-0.3 0.04,-0.6 0.07,-0.9 -0.36,-1.51 -1.44,-3.13 -3.01,-4.84 -1.63,-0.16 -2.84,-1.13 -3.55,-3.06l-1.27 -1.74 -0.33 -1.13 0 -0.09 -1.14 -1.03 -0.45 -1.32 -1.79 -2.45 -1.29 -1.65c-3.75,-2.6 -5.98,-5.29 -5.33,-9.5l-9.08 -1.69 -0.87 0.16 0.08 0.03 0.09 1.6 -0.23 3.47 0.5 2.01 0.19 1.49 0.15 0.2 0.3 0.04c0.14,0.56 0.14,1.11 0,1.63l-0.09 0.42 0 0.08 -0.04 0.38 0.17 0.23 0.25 -0.04 0.19 -0.04 0.24 0.36 -0.21 2.15 0 0.07 0.38 0.91 -0.05 0.95 0.21 1.52 -0.33 1.18 -0.09 0.68c-0.01,1.44 -0.01,2.89 -0.02,4.33 0.11,3.02 0.6,5.62 1.21,8.09l0.37 0.2 -0.1 0.39 -0.03 0.03 0.23 0.92 0.08 0.61 -0.01 0.04 -0.13 0.75 1.25 3.65 2.05 2.15 -0.19 0.89 -0.06 0 0.28 1.29 0 0.12 25.74 0z"/>
   <path class="fil0 str0" d="M14.7 44.24l8.51 1.69 0.19 -0.83 3.3 -6c1.96,-2.25 5.29,-4.21 10.35,-5.83 2,-0.47 4.18,-0.71 6.43,-0.86 0.76,-0.38 1.22,-0.84 1.2,-1.4l2.56 -0.46c0.55,-2.13 2.85,-2.82 4.57,-1.24 4.16,-0.95 8.2,-2.42 12.1,-4.53 1.89,-0.88 3.87,-2.15 6.02,-4.1 -0.12,-1.26 0.37,-1.94 1.57,-1.93 1.28,-1.75 2.13,-3.31 2.39,-4.6 -0.43,-1.1 0.8,-2.01 1.83,-1.23l2.07 1.38 0.74 -0.87 -0.74 -0.55 0.07 -0.46 0.02 -0.98 -0.87 -1.75 -1.24 -2.6c-0.48,-0.37 -0.49,-0.81 -0.02,-1.33l0 -2.31 -8.9 0 0.12 1.08 0.26 1.88 -0.23 2.6 0.27 2.07 -0.3 1.29 -0.92 1.65c-1.49,2.27 -3.94,3.18 -6.6,3.78 -2.87,0.33 -5.07,-0.23 -6.72,-1.52 1.38,-1.93 0.96,-3.93 -0.5,-5.96 -1.25,-1.34 -2.23,-3.82 -3.07,-6.87l-1.58 0 0.53 1.68 0.27 1.28 1.94 3.79 0.53 1.9 0.64 1.41 0.23 1.12c-0.2,0.51 -0.63,0.89 -1.14,1.23 -2.1,-0.47 -4.09,-1.47 -6.04,-2.75 -1.04,-0.64 -1.88,-1.56 -2.62,-2.6 -1.03,-0.88 -2.22,-1.32 -3.66,-1.09 -4.02,-1.66 -8.17,-2.79 -12.4,-3.64 -2.39,0.19 -4.61,0.84 -6.76,1.69 -0.86,0.09 -2.41,-0.25 -3.91,-0.41 -2.12,-0.23 -3.25,-0.62 -4.99,-0.43 -0.82,-0.73 -1.84,-1.12 -3.17,-0.95l-6.37 0.54 0 4 2.65 -1.08 1.29 0.55 10.25 1.12 -0.21 0.4 -6.13 1.48 -3.53 0.13 -1.54 0.27 -2.78 -0.78 0 5.11 4.6 -0.02 0.71 -0.21 1.74 0.19 1.79 0 9.7 -3.51 7.25 -1.79 2.36 0.5 4.51 -0.92 2.21 1.22 -2.74 3.95 -2.62 3.26 -0.6 2.32 -5.05 2.89 -5.59 6.03 -0.6 1.18 -1.14 1.25 -0.15 0 -3.08 0.34 -1.44 1.03 0.22 2.01 2.32 -0.07 4.06 -1.86 2.89 -2.4 -0.68 1.41 -2.05 2.2 -1.98 3.61 -0.95 1.4 -1.4 2.39 -0.25 0.42z"/>
   <path class="fil0 str0" d="M80.14 14.55l-1.04 0.95 1.82 1.4c2.29,1.72 4.9,2.93 7.95,3.43l0 -1.03c-2.5,-0.3 -4.87,-1.39 -7.12,-3.16l-1.61 -1.59z"/>
  </g>
  <g id="_1">
   <path class="fil1 str1" d="M50.31 89.4l-6 -6.61c-0.53,-0.8 -0.81,-1.82 -0.68,-3.18 0.29,-3.22 -0.7,-6.33 -2.89,-9.34 -2.58,-3.45 -5.16,-6.89 -7.74,-10.33 -1.9,-1.9 -9.07,-8.33 -8.68,-11.63 0.17,-1.38 0.56,-2.8 1.1,-4.24 0.76,-1.58 1.68,-3.15 2.77,-4.71l2.22 -1.67 5.26 8.36 4.18 -3.54 8.58 -2.31 -1.71 -7.1 1.33 -1.75 9.23 -2.24 13.86 -6.3 0.64 -0.27 2.32 -3.07 3.91 -4.1"/>
   <polyline class="fil1 str1" points="48.43,40.2 49.59,46.6 51.05,49.89 51.94,63.06 61.81,82.88 66.26,89.4 "/>
   <polyline class="fil1 str1" points="73.43,89.4 63.64,82.24 61.81,82.88 "/>
   <polyline class="fil1 str1" points="63.64,82.24 70.62,77.76 88.87,74.8 "/>
   <polyline class="fil1 str1" points="58.83,76.9 69.79,69.71 79.05,58.55 88.87,44.95 78.9,37.66 66.22,32.12 53.54,39.94 51.18,40.62 48.43,40.2 "/>
   <polyline class="fil1 str1" points="71.78,22.54 69.56,29.31 66.22,32.12 66.52,31.87 66.22,32.12 "/>
   <polyline class="fil1 str1" points="71.46,25.82 80.87,34.32 70.85,48.6 45.08,83.63 "/>
   <line class="fil1 str1" x1="80.87" y1="34.32" x2="88.87" y2= "39.68" />
   <polyline class="fil1 str1" points="24.87,47.57 34.59,48.71 44.77,59.72 48.18,64.66 51.94,63.06 "/>
   <line class="fil1 str1" x1="49.33" y1="63.83" x2="53.43" y2= "72.19" />
   <polyline class="fil1 str1" points="27.07,47.83 28.78,44.02 32.27,40.64 36.3,38.56 47.39,35.89 47.39,35.89 "/>
   <polyline class="fil1 str1" points="53.54,39.94 53.69,48.81 51.41,49.66 "/>
   <polyline class="fil1 str1" points="69.74,78.33 80.32,68.93 88.87,55.87 "/>
   <line class="fil1 str1" x1="35.67" y1="46.05" x2="34.13" y2= "48.66" />
  </g>
  <g id="_2">
   <polyline class="fil1 str2" points="62.53,59.91 56.25,53.15 53.69,48.81 60.96,45.33 68.55,40.17 72.56,34.89 "/>
   <line class="fil1 str2" x1="68.55" y1="40.17" x2="74.06" y2= "44.03" />
   <polyline class="fil1 str2" points="75.16,42.46 83.96,51.75 88.87,55.87 "/>
   <polyline class="fil1 str2" points="79.75,76.28 85.79,69.71 88.87,71.84 "/>
  </g>
  <g id="_3">
   <polyline class="fil1 str3" points="27.51,53.27 31.19,50.69 32.83,48.83 "/>
   <polyline class="fil1 str3" points="33.13,59.46 39.13,54.33 49.59,46.6 "/>
   <polyline class="fil1 str3" points="38.98,67.17 44.41,60.1 47.48,57.75 51.5,56.48 54.09,56.15 64.07,49.32 70.45,41.8 "/>
   <polyline class="fil1 str3" points="51.94,63.06 59.39,56.53 66.54,51.33 "/>
   <line class="fil1 str3" x1="64.49" y1="48.83" x2="67.45" y2= "52.24" />
   <line class="fil1 str3" x1="59.94" y1="64.55" x2="65.86" y2= "71.68" />
   <line class="fil1 str3" x1="63.96" y1="59.15" x2="71.48" y2= "67.05" />
   <polyline class="fil1 str3" points="67.98,53.84 76.85,61.2 76.85,61.2 "/>
   <line class="fil1 str3" x1="70.85" y1="48.6" x2="80.05" y2= "57.16" />
   <line class="fil1 str3" x1="66.47" y1="72.37" x2="70.34" y2= "77.32" />
   <polyline class="fil1 str3" points="71.69,67.42 76.65,72.2 76.65,72.2 "/>
   <line class="fil1 str3" x1="75.35" y1="63.94" x2="80.67" y2= "68.04" />
   <line class="fil1 str3" x1="79.67" y1="56.81" x2="85.15" y2= "60.56" />
   <polyline class="fil1 str3" points="67.49,84.25 81.84,80.15 79.75,76.28 "/>
   <line class="fil1 str3" x1="75.9" y1="81.85" x2="78.05" y2= "89.4" />
   <line class="fil1 str3" x1="55.27" y1="89.4" x2="62.04" y2= "83.22" />
   <line class="fil1 str3" x1="43.34" y1="73.85" x2="52.13" y2= "69.53" />
   <line class="fil1 str3" x1="58.08" y1="37.93" x2="61.57" y2= "44.92" />
   <polyline class="fil1 str3" points="52.66,30.23 54.43,35.35 53.54,39.94 "/>
   <line class="fil1 str3" x1="62.56" y1="27.6" x2="66.22" y2= "32.12" />
   <line class="fil1 str3" x1="39.58" y1="38.5" x2="40.69" y2= "41.88" />
  </g>
  <g id="_1.1">
   <polyline class="fil1 str1" points="0.66,46.42 7.96,44.65 11.3,44.73 "/>
   <polyline class="fil1 str1" points="7.96,44.65 5.91,43.51 3.78,39.79 0.66,36.45 "/>
  </g>
  <polyline id="_2.2" class="fil1 str2" points="5.98,45.54 9.25,62.27 8.03,68.57 11.45,81.4 0.66,85.5 "/>
  <g id="_3.3">
   <path class="fil1 str4" d="M0.66 27.26l3.35 0.53c3.94,1.48 6.35,4.22 7.36,8.13l0.38 14.58c0.14,3.65 1.12,6.93 1.37,10.74 -0.69,5.62 0.19,11.56 1.75,17.35l3.64 10.81"/>
   <polyline class="fil1 str4" points="0.66,71.46 2.64,70.92 8.4,66.68 8.4,66.68 "/>
   <polyline class="fil1 str4" points="6.05,83.45 2.64,70.92 0.66,65.68 "/>
  </g>
  <g id="значок">
   <path class="fil2 str5" d="M60.29 2.42c4.57,-2.73 8.78,-2.53 12.69,0 4.86,4.27 5.55,9.97 2.17,17.04l-8.51 16.6 -8.52 -16.6c-3.29,-6.24 -3.43,-12.04 2.17,-17.04z"/>
   <circle class="fil2 str5" cx="66.75" cy="11.35" r="6.35"/>
  </g>
  <polyline class="fil1 str2" points="88.87,17.27 80.18,13.1 79.95,13.02 78.12,10.81 "/>
  <polyline class="fil1 str2" points="79.41,8.3 83.52,10.74 85.87,13.1 85.97,15.88 85.97,15.88 "/>
 </g>
</svg>
