<?xml version="1.0" encoding="UTF-8"?>
<!DOCTYPE svg PUBLIC "-//W3C//DTD SVG 1.1//EN" "http://www.w3.org/Graphics/SVG/1.1/DTD/svg11.dtd">
<!-- Creator: CorelDRAW 2020 (64-Bit) -->
<svg xmlns="http://www.w3.org/2000/svg" xml:space="preserve" width="210mm" height="297mm" version="1.1" style="shape-rendering:geometricPrecision; text-rendering:geometricPrecision; image-rendering:optimizeQuality; fill-rule:evenodd; clip-rule:evenodd"
viewBox="0 0 21000 29700"
 xmlns:xlink="http://www.w3.org/1999/xlink"
 xmlns:xodm="http://www.corel.com/coreldraw/odm/2003">
 <defs>
  <style type="text/css">
   <![CDATA[
    .str5 {stroke:#898989;stroke-width:200;stroke-miterlimit:22.9256}
    .str3 {stroke:#898989;stroke-width:300;stroke-miterlimit:22.9256}
    .str2 {stroke:#898989;stroke-width:500;stroke-miterlimit:22.9256}
    .str4 {stroke:#898989;stroke-width:150;stroke-miterlimit:22.9256}
    .str0 {stroke:#2B2A29;stroke-width:250;stroke-miterlimit:22.9256}
    .str1 {stroke:#898989;stroke-width:20;stroke-miterlimit:22.9256}
    .fil0 {fill:none}
    .fil2 {fill:#FEFEFE}
    .fil1 {fill:#898989}
   ]]>
  </style>
 </defs>
 <g id="Слой_x0020_1">
  <metadata id="CorelCorpID_0Corel-Layer"/>
  <path class="fil0 str0" d="M-39423.79 5174.2l-2374.4 -4627.74c-1005.56,-2086.03 -714.63,-3631.79 605.76,-4748.79 597.97,-387.27 1186.97,-558.42 1769.01,-560.34"/>
  <path class="fil0 str0" d="M-39423.79 5174.2l2374.4 -4627.74c1005.56,-2086.03 714.63,-3631.79 -605.76,-4748.79 -597.79,-387.08 -1186.6,-558.23 -1768.27,-560.34"/>
  <g id="река">
   <path class="fil1 str1" d="M-46477.92 23151.82c-14.66,-3.53 -9.11,-3.25 -17.45,-3.25l-465.67 -371.74 -67.47 -46.31 -70.11 -124.35 -1.32 -3.97 -25.14 -60.85 -2.65 -5.3 -119.06 -68.79 -113.77 -91.28 0 -3.97 -30.43 -148.17 17.2 -154.78 46.3 -97.89 3.97 -140.23 -97.89 -72.77 0 -6.61 -23.82 -67.47 0 -5.29 78.06 -79.38c1.03,-1.55 2.88,-5.53 3.96,-6.61l19.85 -99.22 -34.4 -220.93 -38.36 -296.33c-0.52,-1.68 -3.8,-14.2 -3.97,-14.56l-59.54 -488.15 -23.81 -60.86c0,-7.94 0,-15.87 0,-23.81l10.58 -156.11c0.67,-10.42 -1.21,-12.63 -10.58,-15.87l-44.98 -171.98 47.62 -60.86 -2.64 -275.16 -95.25 -34.4 -2.65 -7.94 -63.5 -95.25 -23.81 -193.15c6.17,-83.78 12.35,-167.57 18.52,-251.35 -99.01,-419.7 -401.02,-873.24 -838.71,-1349.37 -453.4,-43.74 -790.15,-314.32 -989.55,-851.96l-354.54 -486.83 -89.96 -312.21 0 -26.46 -317.5 -285.75 -127 -370.42 -497.41 -682.62 -359.84 -460.38c-1047.05,-722.4 -1667.63,-1471.85 -1486.95,-2645.84l-2529.42 -470.96 -243.42 42.34 21.16 10.58 26.46 444.5 -63.5 968.38 137.58 560.92 52.92 412.75 42.33 58.21 84.67 10.58c38.14,156.87 39.49,308.77 0,455.08l-26.46 116.42 0 21.17 -10.58 105.83 47.62 63.5 68.8 -10.58 52.91 -10.59 68.79 100.55 -58.2 597.95 0 21.17 105.83 254 -15.88 264.58 58.21 423.34 -89.96 328.08 -26.45 190.5c-1.77,402.17 -3.53,804.33 -5.3,1206.5 30.69,841.83 166.77,1567.74 338.68,2254.25l103.18 55.57 -29.11 108.48 -7.94 10.58 63.5 254 21.17 171.98 -2.65 10.58 -34.39 209.03 346.61 1018.65 571.5 597.96 -52.91 248.71 -15.88 0 79.38 359.84 0 32.35 7174.42 0z"/>
   <path class="fil1 str1" d="M-55086.16 10564.84l2370.68 470.96 52.91 -232.82 920.76 -1672.18c545.68,-624.92 1474.06,-1171.89 2883.96,-1624.54 557.76,-131.63 1165.54,-198.25 1793.89,-238.13 211.79,-107.8 340.31,-234.39 333.37,-391.58l714.38 -127c152.46,-593.52 795.23,-786.96 1274.89,-347.72 1157.79,-263.66 2283.97,-672.72 3371.21,-1260.96 527.18,-246.75 1079.72,-599.87 1677.46,-1143 -31.32,-350.81 103.66,-541.7 439.21,-539.75 356.17,-487.13 592.8,-920.46 666.75,-1280.59 -121.23,-308.01 221.77,-561.58 508.01,-343.96l576.8 386.3 206.37 -243.42 -206.38 -153.46 21.17 -127 5.29 -275.17 -243.42 -486.84 -343.96 -724.96c-135.92,-102.28 -137.46,-225.79 -5.29,-370.42l0 -644.2 -2481.8 0 31.75 300.25 74.08 523.87 -63.5 724.96 74.09 576.8 -84.67 359.83 -254 460.38c-417.29,633.05 -1099.06,886.57 -1841.51,1053.04 -799.2,91.92 -1412.71,-63.71 -1873.25,-423.33 384.81,-538.48 267.89,-1094.88 -137.59,-1661.59 -348.53,-371.22 -621.61,-1063.12 -857.25,-1914.21l-439.21 0 148.17 469.58 74.08 354.54 539.75 1058.34 148.17 529.17 179.92 391.58 63.5 312.21c-56.7,143.31 -176.07,250.08 -317.5,343.96 -584.33,-130.86 -1140.75,-410.63 -1682.76,-767.29 -290.55,-178.81 -524.38,-433.24 -730.25,-724.96 -287.81,-245.29 -620.62,-366.77 -1021.3,-301.63 -1120.46,-464.07 -2278.54,-777.71 -3455.47,-1016 -668.09,52.62 -1286.33,234.82 -1883.84,470.96 -240.92,25.08 -673.52,-70.32 -1090.87,-114.38 -591.38,-62.43 -907.14,-171.6 -1390.93,-118.46 -229.74,-204.91 -512.87,-313.68 -883.71,-264.58l-1777.01 148.17 0 1116.54 739.84 -301.63 359.83 153.46 2857.51 312.21 -58.2 111.13 -1709.22 412.75 -984.25 37.04 -428.63 74.09 -776.88 -216.96 0 1423.46 1284.88 -5.29 195.8 -58.21 486.83 52.92 497.42 0 2704.08 -978.95 2021.42 -497.42 656.17 137.58 1259.41 -254 613.84 338.67 -762 1100.67 -730.25 910.17 -169.34 645.58 -1407.58 804.34 -1555.75 1682.75 -169.34 328.08 -317.5 349.25 -42.33 0 -857.25 95.25 -402.17 285.75 63.5 560.92 645.58 -21.17 1132.42 -518.58 804.34 -666.75 -190.5 391.58 -571.5 613.84 -550.34 1005.41 -264.58 391.59 -391.59 666.75 -68.82 116.41z"/>
   <path class="fil1 str1" d="M-36845.71 2288.69l-291.04 264.58 507.99 391.58c638.38,478.23 1365.64,814.28 2215.7,953.83l0 -287.08c-697.09,-83.08 -1356.29,-386.1 -1982.86,-878.42l-449.79 -444.49z"/>
  </g>
  <g id="_1">
   <path class="fil0 str2" d="M-45159.9 23151.82l-1672.17 -1840.87c-148.52,-224.39 -225.41,-509.39 -190.5,-889.01 81,-896.31 -193.86,-1763.61 -804.33,-2603.5 -719.67,-959.56 -1439.34,-1919.11 -2159.01,-2878.67 -530,-527.55 -2527.21,-2320.22 -2418.3,-3239.84 45.8,-386.74 154.69,-781.88 306.31,-1182.74 212.74,-440.88 468.13,-878.48 772.58,-1312.33l619.13 -465.67 1465.79 2328.34 1164.17 -984.26 2391.84 -645.58 -476.25 -1979.09 370.41 -486.83 2571.76 -624.42 3862.92 -1756.83 179.92 -74.09 645.58 -857.25 1090.08 -1143"/>
   <polyline class="fil0 str2" points="-45684.39,9437.69 -45361.89,11223.53 -44954.43,12138.99 -44705.71,15811.4 -41954.04,21335.91 -40715.79,23151.82 "/>
   <polyline class="fil0 str2" points="-38715.51,23151.82 -41446.01,21155.99 -41954.04,21335.91 "/>
   <polyline class="fil0 str2" points="-41446.01,21155.99 -39498.68,19907.16 -34413.06,19081.66 "/>
   <polyline class="fil0 str2" points="-42785.43,19666.72 -39731.51,17663.49 -37149.18,14551.99 -34413.06,10763.15 -37191.51,8731.15 -40726.35,7185.98 -44261.18,9366.15 -44917.35,9556.65 -45684.39,9437.69 "/>
   <polyline class="fil0 str2" points="-39175.63,4516.43 -39795.02,6402.78 -40726.35,7185.98 -40643.49,7116.31 -40726.35,7185.98 "/>
   <polyline class="fil0 str2" points="-39265.85,5429.12 -36641.18,7799.78 -39435.18,11779.12 -46619.5,21544.96 "/>
   <line class="fil0 str2" x1="-36641.18" y1="7799.78" x2="-34413.06" y2= "9292.04" />
   <polyline class="fil0 str2" points="-52251.55,11493.37 -49542.21,11810.87 -46705.88,14880.04 -45753.38,16255.87 -44705.71,15811.4 "/>
   <line class="fil0 str2" x1="-45433.38" y1="16025.87" x2="-44290.38" y2= "18354.21" />
   <polyline class="fil0 str2" points="-51637.39,11565.35 -51161.44,10503.84 -50189.34,9560.18 -49065.94,8979.84 -45973.63,8235.71 -45973.63,8235.72 "/>
   <polyline class="fil0 str2" points="-44261.18,9366.15 -44218.77,11837.35 -44853.77,12075.47 "/>
   <polyline class="fil0 str2" points="-39746.05,20065.8 -36794.47,17446.51 -34413.06,13805.85 "/>
   <line class="fil0 str2" x1="-49240.4" y1="11067.53" x2="-49671.67" y2= "11795.7" />
  </g>
  <g id="_2">
   <polyline class="fil0 str3" points="-41754.67,14932.06 -43504.31,13049.16 -44218.77,11837.35 -42191.98,10868.99 -40075.31,9429.66 -38958.93,7958.57 "/>
   <line class="fil0 str3" x1="-40075.31" y1="9429.66" x2="-38541.63" y2= "10506.5" />
   <polyline class="fil0 str3" points="-38234.11,10068.51 -35781.12,12657.57 -34413.06,13805.85 "/>
   <polyline class="fil0 str3" points="-36955.87,19494.41 -35270.46,17663.47 -34413.06,18256.13 "/>
  </g>
  <g id="_3">
   <polyline class="fil0 str4" points="-51515.79,13080.87 -50489.21,12361.2 -50034.12,11842.62 "/>
   <polyline class="fil0 str4" points="-49949.46,14805.95 -48277.29,13377.2 -45361.89,11223.53 "/>
   <polyline class="fil0 str4" points="-48319.62,16954.37 -46806.2,14985.87 -45948.95,14329.7 -44830.07,13975.2 -44107.45,13885.2 -41324.03,11980.2 -39546.03,9884.7 "/>
   <polyline class="fil0 str4" points="-44705.71,15811.4 -42629.49,13990.61 -40636.08,12541.1 "/>
   <line class="fil0 str4" x1="-41208.98" y1="11844.62" x2="-40382.08" y2= "12795.1" />
   <line class="fil0 str4" x1="-42477.58" y1="16224.1" x2="-40826.58" y2= "18213.77" />
   <line class="fil0 str4" x1="-41355.75" y1="14721.27" x2="-39260.25" y2= "16922.61" />
   <polyline class="fil0 str4" points="-40233.91,13239.6 -37762.35,15290.81 -37762.34,15290.81 "/>
   <line class="fil0 str4" x1="-39435.18" y1="11779.12" x2="-36870.96" y2= "14166.74" />
   <line class="fil0 str4" x1="-40657.21" y1="18404.29" x2="-39577.7" y2= "19785.43" />
   <polyline class="fil0 str4" points="-39201.3,17024.62 -37819.88,18356.48 -37819.88,18356.47 "/>
   <line class="fil0 str4" x1="-38180.68" y1="16054.79" x2="-36699.02" y2= "17197.79" />
   <line class="fil0 str4" x1="-36976.91" y1="14068.08" x2="-35450.18" y2= "15112.87" />
   <polyline class="fil0 str4" points="-40371.39,21716.85 -36370.88,20573.85 -36955.87,19494.41 "/>
   <line class="fil0 str4" x1="-38028.66" y1="21047.5" x2="-37429.22" y2= "23151.82" />
   <line class="fil0 str4" x1="-43779.22" y1="23151.82" x2="-41889.77" y2= "21430.15" />
   <line class="fil0 str4" x1="-47102.39" y1="18817.02" x2="-44653.37" y2= "17614.77" />
   <line class="fil0 str4" x1="-42996.05" y1="8805.15" x2="-42021.83" y2= "10753.29" />
   <polyline class="fil0 str4" points="-44504.35,6659.56 -44012.05,8085.48 -44261.18,9366.15 "/>
   <line class="fil0 str4" x1="-41747.22" y1="5926.48" x2="-40726.35" y2= "7185.98" />
   <line class="fil0 str4" x1="-48150.14" y1="8963.92" x2="-47843.22" y2= "9905.84" />
  </g>
  <g id="_1.1">
   <polyline class="fil0 str2" points="-59001.01,11173.06 -56966,10678.45 -56034.67,10699.62 "/>
   <polyline class="fil0 str2" points="-56966,10678.45 -57537.51,10360.95 -58130.17,9323.78 -59001.01,8392.45 "/>
  </g>
  <polyline id="_2.2" class="fil0 str3" points="-57517.84,10925.76 -56606.08,15589.08 -56944.74,17345.92 -55992.24,20923.09 -59001.01,22066.09 "/>
  <g id="_3.3">
   <path class="fil0 str5" d="M-59001.01 5831.28l934.34 148.17c1099.51,411.38 1772.09,1176.11 2053.17,2264.83l105.83 4064c38.81,1019.53 310.44,1933.22 381,2995.09 -193.6,1565.41 52.47,3221.79 486.83,4836.58l1016 3011.87"/>
   <polyline class="fil0 str5" points="-59001.01,18150.25 -58447.58,18002.09 -56843.35,16819.97 -56843.35,16819.96 "/>
   <polyline class="fil0 str5" points="-57496.62,21494.59 -58447.58,18002.09 -59001.01,16541.58 "/>
  </g>
  <g id="значок">
   <path class="fil2 str2" d="M-41192.43 -4202.33c1274.62,-762.21 2446.59,-705.28 3537.28,0 1355.21,1190.63 1546.34,2777.23 605.76,4748.79l-2374.4 4627.74 -2374.4 -4627.74c-917.49,-1739.13 -954.28,-3355.37 605.76,-4748.79z"/>
   <circle class="fil2 str2" cx="-39393.11" cy="-1713.2" r="1768.64"/>
  </g>
  <polyline class="fil0 str3" points="-34413.06,3047.83 -36835.67,1883.65 -36899.17,1862.49 -37408.7,1246.77 "/>
  <polyline class="fil0 str3" points="-37049.39,546.46 -35904.34,1227.49 -35248.17,1883.65 -35221.71,2659.24 -35221.7,2659.24 "/>
 </g>
</svg>
