<?xml version="1.0" encoding="UTF-8"?>
<!DOCTYPE svg PUBLIC "-//W3C//DTD SVG 1.1//EN" "http://www.w3.org/Graphics/SVG/1.1/DTD/svg11.dtd">
<!-- Creator: CorelDRAW 2020 (64-Bit) -->
<svg xmlns="http://www.w3.org/2000/svg" xml:space="preserve" width="180px" height="180px" version="1.1" style="shape-rendering:geometricPrecision; text-rendering:geometricPrecision; image-rendering:optimizeQuality; fill-rule:evenodd; clip-rule:evenodd"
viewBox="0 0 32.44 32.44"
 xmlns:xlink="http://www.w3.org/1999/xlink"
 xmlns:xodm="http://www.corel.com/coreldraw/odm/2003">
 <defs>
  <style type="text/css">
   <![CDATA[
    .str4 {stroke:#898989;stroke-width:0.26;stroke-miterlimit:22.9256}
    .str2 {stroke:#898989;stroke-width:0.39;stroke-miterlimit:22.9256}
    .str1 {stroke:#898989;stroke-width:0.65;stroke-miterlimit:22.9256}
    .str3 {stroke:#898989;stroke-width:0.19;stroke-miterlimit:22.9256}
    .str5 {stroke:#898989;stroke-width:0.32;stroke-miterlimit:22.9256}
    .str0 {stroke:#898989;stroke-width:0.03;stroke-miterlimit:22.9256}
    .fil1 {fill:none}
    .fil2 {fill:#FEFEFE}
    .fil0 {fill:#898989}
   ]]>
  </style>
 </defs>
 <g id="Слой_x0020_1">
  <metadata id="CorelCorpID_0Corel-Layer"/>
  <g id="река">
   <path class="fil0 str0" d="M16.41 32.18c-0.02,0 -0.01,0 -0.02,0l-0.6 -0.48 -0.09 -0.06 -0.09 -0.16 0 -0.01 -0.04 -0.07 0 -0.01 -0.15 -0.09 -0.15 -0.12 0 0 -0.04 -0.19 0.02 -0.2 0.06 -0.13 0.01 -0.18 -0.13 -0.1 0 0 -0.03 -0.09 0 -0.01 0.1 -0.1c0,0 0.01,-0.01 0.01,-0.01l0.02 -0.13 -0.04 -0.28 -0.05 -0.39c0,0 -0.01,-0.01 -0.01,-0.01l-0.07 -0.64 -0.03 -0.07c0,-0.01 0,-0.02 0,-0.03l0.01 -0.21c0,-0.01 0,-0.01 -0.01,-0.02l-0.06 -0.22 0.06 -0.08 0 -0.35 -0.13 -0.05 0 -0.01 -0.08 -0.12 -0.03 -0.25c0,-0.11 0.01,-0.22 0.02,-0.32 -0.13,-0.55 -0.52,-1.13 -1.08,-1.75 -0.59,-0.05 -1.02,-0.4 -1.28,-1.1l-0.46 -0.63 -0.12 -0.4 0 -0.03 -0.41 -0.37 -0.16 -0.48 -0.64 -0.88 -0.47 -0.6c-1.35,-0.93 -2.15,-1.9 -1.92,-3.41l-3.26 -0.61 -0.32 0.05 0.03 0.02 0.03 0.57 -0.08 1.25 0.18 0.72 0.07 0.54 0.05 0.07 0.11 0.02c0.05,0.2 0.05,0.4 0,0.58l-0.03 0.15 0 0.03 -0.02 0.14 0.07 0.08 0.08 -0.01 0.07 -0.02 0.09 0.13 -0.07 0.78 0 0.02 0.13 0.33 -0.02 0.34 0.08 0.55 -0.12 0.42 -0.03 0.25c-0.01,0.52 -0.01,1.04 -0.01,1.56 0.04,1.08 0.22,2.02 0.44,2.91l0.13 0.07 -0.04 0.14 -0.01 0.01 0.08 0.33 0.03 0.22 0 0.02 -0.05 0.27 0.45 1.31 0.74 0.78 -0.07 0.32 -0.02 0 0.1 0.46 0 0.04 9.27 0z"/>
   <path class="fil0 str0" d="M5.29 15.93l3.06 0.61 0.07 -0.31 1.19 -2.16c0.71,-0.8 1.91,-1.51 3.73,-2.09 0.72,-0.17 1.5,-0.26 2.31,-0.31 0.28,-0.14 0.44,-0.3 0.43,-0.51l0.93 -0.16c0.19,-0.77 1.02,-1.02 1.64,-0.45 1.5,-0.34 2.95,-0.87 4.36,-1.63 0.68,-0.32 1.39,-0.77 2.16,-1.47 -0.04,-0.46 0.14,-0.7 0.57,-0.7 0.46,-0.63 0.77,-1.19 0.86,-1.66 -0.15,-0.39 0.29,-0.72 0.66,-0.44l0.74 0.5 0.27 -0.32 -0.27 -0.19 0.03 -0.17 0.01 -0.35 -0.32 -0.63 -0.44 -0.94c-0.18,-0.13 -0.18,-0.29 -0.01,-0.48l0 -0.83 -3.2 0 0.04 0.39 0.09 0.68 -0.08 0.93 0.1 0.75 -0.11 0.46 -0.33 0.6c-0.54,0.81 -1.42,1.14 -2.38,1.36 -1.03,0.12 -1.82,-0.09 -2.42,-0.55 0.5,-0.7 0.35,-1.41 -0.18,-2.15 -0.45,-0.48 -0.8,-1.37 -1.1,-2.47l-0.57 0 0.19 0.61 0.1 0.46 0.69 1.36 0.19 0.69 0.24 0.5 0.08 0.41c-0.07,0.18 -0.23,0.32 -0.41,0.44 -0.76,-0.17 -1.47,-0.53 -2.17,-0.99 -0.38,-0.23 -0.68,-0.56 -0.95,-0.94 -0.37,-0.31 -0.8,-0.47 -1.32,-0.39 -1.44,-0.6 -2.94,-1 -4.46,-1.31 -0.86,0.07 -1.66,0.3 -2.43,0.61 -0.31,0.03 -0.87,-0.09 -1.41,-0.15 -0.77,-0.08 -1.17,-0.22 -1.8,-0.15 -0.29,-0.27 -0.66,-0.41 -1.14,-0.34l-2.29 0.19 0 1.44 0.95 -0.39 0.47 0.2 3.69 0.4 -0.08 0.15 -2.21 0.53 -1.27 0.05 -0.55 0.09 -1 -0.28 0 1.84 1.66 -0.01 0.25 -0.07 0.63 0.07 0.64 0 3.49 -1.27 2.61 -0.64 0.85 0.18 1.63 -0.33 0.79 0.44 -0.98 1.42 -0.95 1.17 -0.22 0.84 -1.81 1.04 -2.01 2.17 -0.22 0.42 -0.41 0.45 -0.06 0 -1.1 0.13 -0.52 0.37 0.08 0.72 0.83 -0.03 1.46 -0.67 1.04 -0.86 -0.24 0.51 -0.74 0.79 -0.71 1.3 -0.34 0.51 -0.51 0.86 -0.09 0.15z"/>
   <path class="fil0 str0" d="M28.85 5.24l-0.38 0.34 0.66 0.51c0.83,0.61 1.76,1.05 2.86,1.23l0 -0.37c-0.9,-0.11 -1.75,-0.5 -2.56,-1.14l-0.58 -0.57z"/>
  </g>
  <g id="_1">
   <path class="fil1 str1" d="M18.11 32.18l-2.16 -2.37c-0.19,-0.29 -0.29,-0.66 -0.24,-1.15 0.1,-1.16 -0.25,-2.28 -1.04,-3.36 -0.93,-1.24 -1.86,-2.48 -2.79,-3.72 -0.69,-0.68 -3.26,-3 -3.12,-4.19 0.06,-0.5 0.2,-1.01 0.39,-1.52 0.28,-0.57 0.61,-1.14 1,-1.7l0.8 -0.6 1.89 3.01 1.51 -1.27 3.08 -0.84 -0.61 -2.55 0.48 -0.63 3.32 -0.81 4.99 -2.27 0.23 -0.09 0.84 -1.11 1.4 -1.48"/>
   <polyline class="fil1 str1" points="17.43,14.47 17.85,16.78 18.38,17.96 18.7,22.7 22.25,29.84 23.85,32.18 "/>
   <polyline class="fil1 str1" points="26.44,32.18 22.91,29.61 22.25,29.84 "/>
   <polyline class="fil1 str1" points="22.91,29.61 25.42,27.99 31.99,26.93 "/>
   <polyline class="fil1 str1" points="21.18,27.68 25.12,25.1 28.46,21.08 31.99,16.18 28.4,13.56 23.84,11.56 19.27,14.38 18.43,14.62 17.43,14.47 "/>
   <polyline class="fil1 str1" points="25.84,8.12 25.04,10.55 23.84,11.56 23.95,11.47 23.84,11.56 "/>
   <polyline class="fil1 str1" points="25.72,9.29 29.11,12.36 25.51,17.5 16.23,30.11 "/>
   <line class="fil1 str1" x1="29.11" y1="12.36" x2="31.99" y2= "14.28" />
   <polyline class="fil1 str1" points="8.95,17.13 12.45,17.54 16.12,21.5 17.35,23.28 18.7,22.7 "/>
   <line class="fil1 str1" x1="17.76" y1="22.98" x2="19.24" y2= "25.99" />
   <polyline class="fil1 str1" points="9.75,17.22 10.36,15.85 11.62,14.63 13.07,13.88 17.06,12.92 17.06,12.92 "/>
   <polyline class="fil1 str1" points="19.27,14.38 19.33,17.57 18.51,17.88 "/>
   <polyline class="fil1 str1" points="25.1,28.2 28.92,24.82 31.99,20.11 "/>
   <line class="fil1 str1" x1="12.84" y1="16.58" x2="12.29" y2= "17.52" />
  </g>
  <g id="_2">
   <polyline class="fil1 str2" points="22.51,21.57 20.25,19.14 19.33,17.57 21.95,16.32 24.68,14.46 26.12,12.56 "/>
   <line class="fil1 str2" x1="24.68" y1="14.46" x2="26.66" y2= "15.85" />
   <polyline class="fil1 str2" points="27.06,15.29 30.23,18.63 31.99,20.11 "/>
   <polyline class="fil1 str2" points="28.71,27.46 30.89,25.1 31.99,25.86 "/>
  </g>
  <g id="_3">
   <polyline class="fil1 str3" points="9.9,19.18 11.23,18.25 11.82,17.58 "/>
   <polyline class="fil1 str3" points="11.93,21.4 14.09,19.56 17.85,16.78 "/>
   <polyline class="fil1 str3" points="14.03,24.18 15.99,21.64 17.09,20.79 18.54,20.33 19.47,20.22 23.07,17.76 25.36,15.05 "/>
   <polyline class="fil1 str3" points="18.7,22.7 21.38,20.35 23.96,18.48 "/>
   <line class="fil1 str3" x1="23.22" y1="17.58" x2="24.28" y2= "18.81" />
   <line class="fil1 str3" x1="21.58" y1="23.24" x2="23.71" y2= "25.81" />
   <line class="fil1 str3" x1="23.03" y1="21.3" x2="25.73" y2= "24.14" />
   <polyline class="fil1 str3" points="24.47,19.38 27.67,22.03 27.67,22.03 "/>
   <line class="fil1 str3" x1="25.51" y1="17.5" x2="28.82" y2= "20.58" />
   <line class="fil1 str3" x1="23.93" y1="26.05" x2="25.32" y2= "27.84" />
   <polyline class="fil1 str3" points="25.81,24.27 27.59,25.99 27.59,25.99 "/>
   <line class="fil1 str3" x1="27.13" y1="23.02" x2="29.04" y2= "24.49" />
   <line class="fil1 str3" x1="28.68" y1="20.45" x2="30.65" y2= "21.8" />
   <polyline class="fil1 str3" points="24.3,30.33 29.46,28.85 28.71,27.46 "/>
   <line class="fil1 str3" x1="27.32" y1="29.47" x2="28.1" y2= "32.18" />
   <line class="fil1 str3" x1="19.9" y1="32.18" x2="22.34" y2= "29.96" />
   <line class="fil1 str3" x1="15.6" y1="26.59" x2="18.77" y2= "25.03" />
   <line class="fil1 str3" x1="20.91" y1="13.65" x2="22.17" y2= "16.17" />
   <polyline class="fil1 str3" points="18.96,10.88 19.59,12.72 19.27,14.38 "/>
   <line class="fil1 str3" x1="22.52" y1="9.94" x2="23.84" y2= "11.56" />
   <line class="fil1 str3" x1="14.25" y1="13.86" x2="14.65" y2= "15.08" />
  </g>
  <g id="_1.1">
   <polyline class="fil1 str1" points="0.24,16.71 2.86,16.07 4.07,16.1 "/>
   <polyline class="fil1 str1" points="2.86,16.07 2.13,15.66 1.36,14.32 0.24,13.12 "/>
  </g>
  <polyline id="_2.2" class="fil1 str2" points="2.15,16.39 3.33,22.42 2.89,24.69 4.12,29.31 0.24,30.78 "/>
  <g id="_3.3">
   <path class="fil1 str4" d="M0.24 9.81l1.2 0.19c1.42,0.54 2.29,1.52 2.65,2.93l0.14 5.25c0.05,1.32 0.4,2.5 0.49,3.87 -0.25,2.02 0.07,4.16 0.63,6.24l1.31 3.89"/>
   <polyline class="fil1 str4" points="0.24,25.72 0.95,25.53 3.02,24.01 3.02,24.01 "/>
   <polyline class="fil1 str4" points="2.18,30.04 0.95,25.53 0.24,23.65 "/>
  </g>
  <g id="значок">
   <path class="fil2 str5" d="M21.7 0.87c1.65,-0.98 3.16,-0.91 4.57,0 1.75,1.54 2,3.59 0.79,6.14l-3.07 5.97 -3.07 -5.97c-1.18,-2.25 -1.23,-4.34 0.78,-6.14z"/>
   <circle class="fil2 str5" cx="24.03" cy="4.09" r="2.28"/>
  </g>
  <polyline class="fil1 str2" points="31.99,6.22 28.86,4.71 28.78,4.69 28.12,3.89 "/>
  <polyline class="fil1 str2" points="28.59,2.99 30.07,3.87 30.91,4.71 30.95,5.72 30.95,5.72 "/>
 </g>
</svg>
