<?xml version="1.0" encoding="UTF-8" standalone="no"?>
<svg
   xmlns:dc="http://purl.org/dc/elements/1.1/"
   xmlns:cc="http://creativecommons.org/ns#"
   xmlns:rdf="http://www.w3.org/1999/02/22-rdf-syntax-ns#"
   xmlns:svg="http://www.w3.org/2000/svg"
   xmlns="http://www.w3.org/2000/svg"
   xmlns:sodipodi="http://sodipodi.sourceforge.net/DTD/sodipodi-0.dtd"
   xmlns:inkscape="http://www.inkscape.org/namespaces/inkscape"
   inkscape:version="1.0 (4035a4fb49, 2020-05-01)"
   sodipodi:docname="amenity_firestation.svg"
   id="svg6"
   version="1.1"
   width="580"
   viewBox="0 0 580 580"
   height="580"
   enable-background="new 0 0 580 580">
  <metadata
     id="metadata12">
    <rdf:RDF>
      <cc:Work
         rdf:about="">
        <dc:format>image/svg+xml</dc:format>
        <dc:type
           rdf:resource="http://purl.org/dc/dcmitype/StillImage" />
      </cc:Work>
    </rdf:RDF>
  </metadata>
  <defs
     id="defs10" />
  <sodipodi:namedview
     inkscape:current-layer="svg6"
     inkscape:window-maximized="1"
     inkscape:window-y="-8"
     inkscape:window-x="-8"
     inkscape:cy="290"
     inkscape:cx="290"
     inkscape:zoom="1.4655172"
     showgrid="false"
     id="namedview8"
     inkscape:window-height="1018"
     inkscape:window-width="1920"
     inkscape:pageshadow="2"
     inkscape:pageopacity="0"
     guidetolerance="10"
     gridtolerance="10"
     objecttolerance="10"
     borderopacity="1"
     bordercolor="#666666"
     pagecolor="#ffffff" />
  <path
     id="path2"
     stroke-width="param(outline-width)"
     stroke-miterlimit="10"
     stroke="param(outline)"
     fill="param(fill)"
     d="m170.847 479.718c-36.582-20.633-58.877-68.876-42.415-140.977 11.548-50.58 45.201-113.004 19.41-164.982 31.286 21.625 63.813 73.047 96.618 131.125 2.262-62.808-30.329-103.959-6.901-189.787 16.076 106.179 80.559 112.76 113.296 209.339 13.925-45.408 42.891-60.354 28.756-173.107 142.343 194.397 61.214 263.454 32.781 332.988l9.201-96.618c-44.644 129.05-80.412 152.857-112.721 181.734 18.057-60.578 25.178-121.156-11.502-181.734-8.906 99.462-34.04 78.764-39.108 158.73-50.254-37.93-60.576-76.838-69.588-140.327-6.836 7.431-18.381 38.482-17.827 73.616z" />
  <path
     id="path4"
     stroke-width="param(outline-width)"
     stroke-miterlimit="10"
     stroke="param(outline)"
     fill="param(fill)"
     d="m274.941 15.604c-37.226 151.158 30.739 149.83 68.438 238.67 26.443-136.987-52.662-106.165-68.438-238.67z" />
  <path
     id="path14"
     d="m 310.00942,566.99232 c 9.47549,-31.77442 13.71175,-58.19009 13.67167,-85.25114 -0.0345,-23.2768 -2.46513,-38.39557 -9.52669,-59.25639 -2.88957,-8.5362 -14.34822,-32.94121 -16.18057,-34.46193 -0.68192,-0.56594 -1.12006,1.59976 -2.09114,10.33647 -3.76065,33.83433 -8.43456,50.97369 -21.90089,80.31126 -8.30889,18.10163 -12.17502,31.70281 -14.37211,50.56155 -0.58594,5.02938 -1.28047,10.75248 -1.5434,12.718 l -0.47805,3.57367 -6.82353,-5.67382 c -27.83513,-23.14512 -43.52349,-48.33235 -52.49494,-84.27914 -2.94675,-11.80704 -5.36343,-24.01243 -7.58138,-38.28963 -0.96005,-6.18004 -1.85008,-11.34095 -1.97783,-11.4687 -0.39249,-0.39249 -2.82693,3.37882 -5.098,7.89759 -7.23634,14.39822 -13.02432,41.02437 -13.02432,59.91513 0,2.77494 -0.25891,5.04535 -0.57534,5.04535 -1.27867,0 -10.87154,-7.31486 -15.92702,-12.14484 -27.48607,-26.26003 -36.98297,-69.82973 -26.50249,-121.58749 2.35453,-11.6278 5.31847,-22.26309 13.21887,-47.43238 10.08886,-32.14128 13.81098,-47.26917 15.78739,-64.16505 2.34588,-20.05434 0.22609,-39.87021 -5.75607,-53.808 -0.78792,-1.83576 -1.30393,-3.46641 -1.14668,-3.62365 0.42956,-0.42956 11.82949,9.35142 16.19782,13.89749 20.1753,20.99621 41.47937,51.67575 69.31169,99.8143 4.6772,8.08964 8.78846,15.00015 9.13614,15.35668 0.85603,0.8778 0.80439,-11.46217 -0.0912,-21.80118 -0.99773,-11.51772 -2.13792,-18.78171 -6.83266,-43.52978 -5.24672,-27.6578 -6.57572,-36.79194 -7.58987,-52.1649 -1.27474,-19.32323 0.66175,-40.69257 5.65839,-62.44061 1.4113,-6.14274 2.664,-8.61092 2.664,-5.24887 0,2.154 2.63117,14.48455 4.79656,22.47828 6.55867,24.21193 17.10172,45.4703 32.99513,66.52941 4.04291,5.35693 8.35531,10.68796 24.46571,30.2447 19.78746,24.02039 31.07846,41.20976 40.38181,61.47707 3.8211,8.32426 9.26667,21.95969 9.26667,23.20328 0,0.40358 0.26857,0.73377 0.59681,0.73377 0.32825,0 1.58513,-2.84029 2.79306,-6.31176 1.20794,-3.47147 5.65981,-13.98824 9.89305,-23.37059 9.04502,-20.04696 11.7395,-27.1212 14.55429,-38.21176 4.12449,-16.25085 5.59808,-29.7375 5.59808,-51.23484 0,-15.55021 -0.77615,-29.88103 -2.3805,-43.9534 -0.49205,-4.31588 -0.82982,-7.91702 -0.75062,-8.00252 0.2833,-0.30584 12.66499,17.44545 20.34159,29.16317 34.4862,52.64047 53.65002,98.40772 58.84596,140.53662 1.36652,11.07987 1.3668,31.63176 5.7e-4,42.12072 -2.12881,16.34341 -7.19297,34.42643 -14.29402,51.04083 -5.44314,12.73539 -31.73945,63.92043 -31.73945,61.77998 0,-1.05167 1.85078,-21.21651 4.11284,-44.81076 2.26205,-23.59424 4.02764,-43.61545 3.92353,-44.49155 -0.1164,-0.97942 -1.33172,1.64863 -3.15551,6.82353 -12.57206,35.67261 -27.77493,70.30299 -40.99048,93.37154 -12.94739,22.60046 -25.07215,38.76923 -40.94991,54.60808 -12.11402,12.08434 -26.97519,25.28118 -26.43693,23.47621 z"
     style="fill:#ff6600;stroke-width:0.682353" />
  <path
     id="path16"
     d="m 340.55393,247.04626 c -6.24584,-14.21227 -17.09859,-31.28906 -33.84689,-53.25802 -23.78924,-31.20466 -30.1437,-41.81547 -36.09185,-60.26699 -4.00809,-12.43333 -5.30546,-21.35702 -5.67227,-39.015368 -0.3486,-16.781855 0.53494,-28.269256 3.53205,-45.922228 1.67325,-9.855402 5.88778,-29.996813 6.20665,-29.661785 0.0963,0.101207 0.97632,4.961127 1.95554,10.799822 6.34843,37.853079 16.1915,59.84992 44.1036,98.560659 9.40564,13.04449 12.4311,17.805 16.63366,26.1728 10.76818,21.44074 13.53266,47.98424 8.53815,81.98014 -0.74435,5.06647 -1.54324,10.52515 -1.77532,12.1304 -0.23208,1.60525 -0.63624,3.05106 -0.89813,3.21291 -0.26189,0.16185 -1.47022,-1.96769 -2.68519,-4.73234 z"
     style="fill:#ff6600;stroke-width:0.682353" />
</svg>
