<?xml version="1.0" encoding="UTF-8"?>
<!DOCTYPE svg PUBLIC "-//W3C//DTD SVG 1.1//EN" "http://www.w3.org/Graphics/SVG/1.1/DTD/svg11.dtd">
<!-- Creator: CorelDRAW 2020 (64-Bit) -->
<svg xmlns="http://www.w3.org/2000/svg" xml:space="preserve" width="120mm" height="120mm" version="1.1" style="shape-rendering:geometricPrecision; text-rendering:geometricPrecision; image-rendering:optimizeQuality; fill-rule:evenodd; clip-rule:evenodd"
viewBox="0 0 12000 12000"
 xmlns:xlink="http://www.w3.org/1999/xlink"
 xmlns:xodm="http://www.corel.com/coreldraw/odm/2003">
 <defs>
  <style type="text/css">
   <![CDATA[
    .str2 {stroke:#434242;stroke-width:423.33;stroke-miterlimit:22.9256}
    .str1 {stroke:#434242;stroke-width:423.33;stroke-miterlimit:22.9256}
    .str0 {stroke:#434242;stroke-width:246.94;stroke-miterlimit:22.9256}
    .fil6 {fill:none}
    .fil3 {fill:#434242}
    .fil0 {fill:#EFA85B}
    .fil4 {fill:#FA7A62}
    .fil5 {fill:#FCD267}
    .fil1 {fill:#FEC07D}
    .fil2 {fill:#FEC07D}
   ]]>
  </style>
 </defs>
 <g id="Слой_x0020_1">
  <metadata id="CorelCorpID_0Corel-Layer"/>
  <rect class="fil0 str0" x="4760.55" y="1076.34" width="6510.49" height="9667.56"/>
  <rect class="fil1 str1" x="4462.95" y="908.08" width="1772.07" height="2923.91" rx="220.87" ry="220.87"/>
  <rect class="fil1 str1" x="7019.78" y="908.08" width="4480.79" height="2923.91" rx="281.19" ry="111.21"/>
  <rect class="fil1 str1" x="4462.95" y="4445.87" width="4480.79" height="2923.91" rx="348.16" ry="137.69"/>
  <rect class="fil1 str1" x="9728.5" y="4445.43" width="1772.07" height="2923.91" rx="202.26" ry="202.26"/>
  <rect class="fil1 str1" x="4462.95" y="8014.05" width="1772.07" height="2923.91" rx="150.55" ry="150.55"/>
  <rect class="fil1 str1" x="7019.78" y="8014.05" width="4480.79" height="2923.91" rx="331.23" ry="130.99"/>
  <rect class="fil2" x="7956.82" y="10743.91" width="1139.96" height="377.59"/>
  <ellipse class="fil3" cx="9103.59" cy="10939.66" rx="172.1" ry="170.19"/>
  <ellipse class="fil3" cx="7956.82" cy="10939.66" rx="172.1" ry="170.19"/>
  <path class="fil4" d="M984.79 9889.35c-565.09,-579.92 -328.54,-1584.69 -318.67,-1752.9 41.57,-707.83 -332.13,-1171.22 -310.54,-1676.04 2.78,-65.07 269.76,110.92 416.17,145.18 245.38,57.43 408.73,121.19 718.7,-378.28 476.95,-768.54 736.05,-935.54 901.23,-1060.08 51.82,-39.07 298.86,-261.24 286.74,268.92 -9.24,404.73 117.05,1255.54 878.26,1529.2 310.61,111.67 195.38,378.95 350.92,685.52 60.19,118.66 175.16,317.13 384.39,363.8 454.58,101.4 491.2,-202.37 571.29,-432.38 1.37,-3.93 106.32,638.69 64.52,939 -124.07,891.27 -618.21,1449.37 -843.82,1709.8 -156.59,180.77 -402.9,264.99 -530.06,316.68 -296.96,120.7 -664.08,199.7 -993.57,179.14 -282.72,-17.65 -538.98,-3.62 -935.83,-239.38 -383.95,-228.11 -562.89,-498.59 -639.73,-598.18z"/>
  <path class="fil5 str2" d="M2506.64 7963.92c0,184.17 -181.26,534.37 -288.13,663.91 -107.91,130.79 -397.5,412.47 -525.34,637.57 -167.7,295.29 -196.84,727.19 34.8,1040.51 100.19,135.52 260.81,244.3 527.36,378.91 176.74,89.27 697.68,41.89 992.43,-162.41 100.8,-69.86 299.28,-237.46 337.2,-401.54 22.26,-96.27 35.39,-196.09 35.39,-348.03 0,-418.77 -37.45,-539.39 -256.24,-903.03 -139.39,-231.66 -239.88,-397.44 -402.29,-633.22 -93.79,-136.18 -242.9,-317.29 -289.83,-466.47 -84.09,-267.37 -102.06,-184.25 -136.71,21.81l-28.64 171.99z"/>
  <path class="fil6 str2" d="M612.24 8993.59c-40.26,-233.24 44.01,-688.93 53.88,-857.14 41.58,-707.83 -332.13,-1171.22 -310.54,-1676.04 2.78,-65.07 269.76,110.92 416.17,145.18 245.38,57.43 408.73,121.19 718.7,-378.28 476.95,-768.54 736.05,-935.54 901.23,-1060.08 51.82,-39.07 298.86,-261.24 286.74,268.92 -9.24,404.73 117.05,1255.54 878.26,1529.2 310.61,111.67 195.38,378.95 350.92,685.52 60.19,118.66 175.16,317.13 384.39,363.8 454.58,101.4 491.2,-202.37 571.29,-432.38 1.37,-3.93 106.32,638.69 64.52,939 -124.07,891.27 -618.21,1449.37 -843.82,1709.8 -156.59,180.77 -402.9,264.99 -530.06,316.68 -296.96,120.7 -664.08,199.7 -993.57,179.14 -282.72,-17.65 -538.98,-3.62 -935.83,-239.38 -383.95,-228.11 -562.89,-498.59 -639.73,-598.18"/>
  <ellipse class="fil3" cx="989.34" cy="9894.92" rx="169.27" ry="167.39"/>
  <ellipse class="fil3" cx="612.23" cy="8993.59" rx="169.27" ry="167.39"/>
 </g>
</svg>
