<?xml version="1.0" encoding="UTF-8"?>
<!DOCTYPE svg PUBLIC "-//W3C//DTD SVG 1.1//EN" "http://www.w3.org/Graphics/SVG/1.1/DTD/svg11.dtd">
<!-- Creator: CorelDRAW 2020 (64-Bit) -->
<svg xmlns="http://www.w3.org/2000/svg" xml:space="preserve" width="120mm" height="120mm" version="1.1" style="shape-rendering:geometricPrecision; text-rendering:geometricPrecision; image-rendering:optimizeQuality; fill-rule:evenodd; clip-rule:evenodd"
viewBox="0 0 12000 12000"
 xmlns:xlink="http://www.w3.org/1999/xlink"
 xmlns:xodm="http://www.corel.com/coreldraw/odm/2003">
 <defs>
  <style type="text/css">
   <![CDATA[
    .str1 {stroke:#434242;stroke-width:211.67;stroke-miterlimit:22.9256}
    .str0 {stroke:#434242;stroke-width:352.78;stroke-miterlimit:22.9256}
    .str2 {stroke:#D8B17A;stroke-width:20;stroke-miterlimit:22.9256}
    .fil2 {fill:none}
    .fil5 {fill:#434242}
    .fil0 {fill:#CE925F}
    .fil4 {fill:#CE925F}
    .fil1 {fill:#D8B17A}
    .fil3 {fill:#D8B17A}
   ]]>
  </style>
 </defs>
 <g id="Слой_x0020_1">
  <metadata id="CorelCorpID_0Corel-Layer"/>
  <rect class="fil0 str0" x="10125.67" y="2539.65" width="942.14" height="8682.81" rx="146.04" ry="146.48"/>
  <polygon class="fil0 str0" points="10075.71,2539.65 9732.95,1866 9807.65,1742.96 11354.46,1742.96 11420.38,1852.81 11094.36,2537.42 "/>
  <rect class="fil0 str0" x="10209.85" y="1203.7" width="786.65" height="539.26"/>
  <polygon class="fil0 str0" points="9981.33,1234.46 11176.69,1216.88 10939.37,693.91 10266.98,693.91 "/>
  <rect class="fil0 str0" x="923.48" y="2539.65" width="942.14" height="8682.81" rx="146.04" ry="146.48"/>
  <polygon class="fil0 str0" points="873.51,2539.65 530.75,1866 605.46,1742.96 2152.27,1742.96 2218.18,1852.81 1892.17,2537.42 "/>
  <rect class="fil0 str0" x="1007.66" y="1203.7" width="786.65" height="539.26"/>
  <polygon class="fil0 str0" points="779.13,1234.46 1974.49,1216.88 1737.18,693.91 1064.79,693.91 "/>
  <path class="fil0 str0" d="M1865.62 2970.13c2717.33,-2143.27 5471.01,-2122.95 8260.06,0l0 879.2c-2771.25,-2219.39 -5524.66,-2226.08 -8260.06,0l0 -879.2z"/>
  <path class="fil1 str0" d="M1865.62 10801.12l8260.06 0 0 -6379.29c-2753.36,-2184.84 -5506.7,-2179.55 -8260.06,0l0 6379.29z"/>
  <line class="fil2 str1" x1="10125.68" y1="8931.72" x2="1865.62" y2= "8931.72" />
  <polyline class="fil2 str0" points="5995.65,10801.12 6002.82,2871 5995.65,2697.5 "/>
  <line class="fil2 str1" x1="2726.83" y1="8866.71" x2="2726.83" y2= "3851.28" />
  <line class="fil2 str1" x1="3507.29" y1="8866.71" x2="3507.29" y2= "3404.19" />
  <line class="fil2 str1" x1="4322.82" y1="8866.71" x2="4322.82" y2= "3047.08" />
  <line class="fil2 str1" x1="5120.96" y1="8866.71" x2="5120.96" y2= "2857.08" />
  <rect class="fil3 str2" x="3989.61" y="4362.54" width="666.41" height="1057.49"/>
  <rect class="fil3 str2" x="4001.3" y="3900.14" width="631.33" height="257.21"/>
  <rect class="fil4" x="780.16" y="8188.14" width="576.98" height="1319.38"/>
  <rect class="fil3" x="7387.05" y="10542.69" width="1411" height="398.76"/>
  <rect class="fil4" x="10622.45" y="4200.6" width="576.98" height="1319.38"/>
  <ellipse class="fil5" cx="923.37" cy="9508.5" rx="128.07" ry="127.7"/>
  <ellipse class="fil5" cx="923.37" cy="8188.13" rx="128.07" ry="127.7"/>
  <ellipse class="fil5" cx="7379.22" cy="10801.12" rx="128.07" ry="127.7"/>
  <ellipse class="fil5" cx="8804.35" cy="10801.12" rx="128.07" ry="127.7"/>
  <ellipse class="fil5" cx="11067.82" cy="5519.97" rx="128.07" ry="127.7"/>
  <ellipse class="fil5" cx="11067.82" cy="4200.59" rx="128.07" ry="127.7"/>
  <line class="fil2 str1" x1="9251.41" y1="8866.71" x2="9251.41" y2= "3851.28" />
  <line class="fil2 str1" x1="8470.95" y1="8866.71" x2="8470.95" y2= "3404.19" />
  <line class="fil2 str1" x1="7655.42" y1="8866.71" x2="7655.42" y2= "3047.08" />
  <line class="fil2 str1" x1="6857.28" y1="8866.71" x2="6857.28" y2= "2857.08" />
  <rect class="fil3 str2" x="8105.36" y="7301.93" width="666.41" height="1291.53"/>
  <rect class="fil3 str2" x="8117.05" y="6793.1" width="631.33" height="257.21"/>
 </g>
</svg>
