<?xml version="1.0" encoding="UTF-8" standalone="no"?>
<svg
   xmlns:dc="http://purl.org/dc/elements/1.1/"
   xmlns:cc="http://creativecommons.org/ns#"
   xmlns:rdf="http://www.w3.org/1999/02/22-rdf-syntax-ns#"
   xmlns:svg="http://www.w3.org/2000/svg"
   xmlns="http://www.w3.org/2000/svg"
   xmlns:sodipodi="http://sodipodi.sourceforge.net/DTD/sodipodi-0.dtd"
   xmlns:inkscape="http://www.inkscape.org/namespaces/inkscape"
   inkscape:version="1.0 (4035a4fb49, 2020-05-01)"
   sodipodi:docname="wall.svg"
   id="svg48"
   version="1.1"
   viewBox="0 0 60 60">
  <metadata
     id="metadata54">
    <rdf:RDF>
      <cc:Work
         rdf:about="">
        <dc:format>image/svg+xml</dc:format>
        <dc:type
           rdf:resource="http://purl.org/dc/dcmitype/StillImage" />
      </cc:Work>
    </rdf:RDF>
  </metadata>
  <defs
     id="defs52" />
  <sodipodi:namedview
     inkscape:current-layer="018---Firewall"
     inkscape:window-maximized="1"
     inkscape:window-y="-8"
     inkscape:window-x="-8"
     inkscape:cy="30.759231"
     inkscape:cx="5.5445127"
     inkscape:zoom="10.017346"
     showgrid="false"
     id="namedview50"
     inkscape:window-height="1018"
     inkscape:window-width="1920"
     inkscape:pageshadow="2"
     inkscape:pageopacity="0"
     guidetolerance="10"
     gridtolerance="10"
     objecttolerance="10"
     borderopacity="1"
     bordercolor="#666666"
     pagecolor="#ffffff" />
  <g
     transform="translate(-1 -1)"
     fill="none"
     id="018---Firewall">
    <path
       style="stroke-width:1.36188"
       fill="#f2a95a"
       d="M 4.1788711,11.554682 H 57.871541 V 50.933727 H 4.1788711 Z"
       id="Rectangle" />
    <rect
       style="stroke-width:1.36188"
       y="-20.743126"
       x="-59.2845"
       width="14.12965"
       transform="scale(-1)"
       rx="1.4129649"
       height="10.501079"
       fill="#ffc17d"
       id="rect3" />
    <rect
       style="stroke-width:1.36188"
       y="25.993662"
       x="2.7659061"
       width="14.12965"
       rx="1.4129649"
       height="10.501079"
       fill="#ffc17d"
       id="rect5" />
    <rect
       style="stroke-width:1.36188"
       y="25.993662"
       x="22.547417"
       width="36.737091"
       rx="1.4129649"
       height="10.501079"
       fill="#ffc17d"
       id="rect7" />
    <rect
       style="stroke-width:1.36188"
       y="10.242046"
       x="2.7659061"
       width="36.737091"
       rx="1.4129649"
       height="10.501079"
       fill="#ffc17d"
       id="rect9" />
    <rect
       style="stroke-width:1.36188"
       y="-52.246365"
       x="-59.2845"
       width="14.12965"
       transform="scale(-1)"
       rx="1.4129649"
       height="10.501079"
       fill="#ffc17d"
       id="rect11" />
    <rect
       style="stroke-width:1.36188"
       y="-52.246365"
       x="-39.502995"
       width="36.737091"
       transform="scale(-1)"
       rx="1.4129649"
       height="10.501079"
       fill="#ffc17d"
       id="rect13" />
    <g
       transform="matrix(1.412965,0,0,1.3126348,-25.493393,-26.511729)"
       id="g45"
       fill="#373737">
      <path
         d="m 59,37 h -8 c -1.104569,0 -2,-0.895431 -2,-2 v -6 c 0,-1.10457 0.895431,-2 2,-2 h 8 c 1.104569,0 2,0.89543 2,2 v 6 c 0,1.104569 -0.895431,2 -2,2 z m -8,-8 v 6 h 8 v -6 z"
         id="Shape" />
      <path
         d="M 45,37 H 21 c -1.10457,0 -2,-0.895431 -2,-2 v -1.97 c 0,-0.552285 0.447715,-1 1,-1 0.552285,0 1,0.447715 1,1 V 35 H 45 V 29 H 25.54 c -0.552285,0 -1,-0.447715 -1,-1 0,-0.552285 0.447715,-1 1,-1 H 45 c 1.104569,0 2,0.89543 2,2 v 6 c 0,1.104569 -0.895431,2 -2,2 z"
         id="path19" />
      <path
         d="m 29,49 h -8 c -1.10457,0 -2,-0.895431 -2,-2 v -6 c 0,-1.104569 0.89543,-2 2,-2 h 8 c 1.10457,0 2,0.895431 2,2 v 6 c 0,1.104569 -0.89543,2 -2,2 z m -8,-8 v 6 h 8 v -6 z"
         id="path21" />
      <path
         d="M 59,49 H 35 c -1.104569,0 -2,-0.895431 -2,-2 v -6 c 0,-1.104569 0.895431,-2 2,-2 h 24 c 1.104569,0 2,0.895431 2,2 v 6 c 0,1.104569 -0.895431,2 -2,2 z M 35,41 v 6 h 24 v -6 z"
         id="path23" />
      <path
         d="m 59,61 h -8 c -1.104569,0 -2,-0.895431 -2,-2 v -6 c 0,-1.104569 0.895431,-2 2,-2 h 8 c 1.104569,0 2,0.895431 2,2 v 6 c 0,1.104569 -0.895431,2 -2,2 z m -8,-8 v 6 h 8 v -6 z"
         id="path25" />
      <path
         d="m 45,61 h -8 c -0.552285,0 -1,-0.447715 -1,-1 0,-0.552285 0.447715,-1 1,-1 h 8 V 53 H 21 v 6 h 10 c 0.552285,0 1,0.447715 1,1 0,0.552285 -0.447715,1 -1,1 H 21 c -1.10457,0 -2,-0.895431 -2,-2 v -6 c 0,-1.104569 0.89543,-2 2,-2 h 24 c 1.104569,0 2,0.895431 2,2 v 6 c 0,1.104569 -0.895431,2 -2,2 z"
         id="path27" />
      <path
         d="m 21,53 c -0.552285,0 -1,-0.447715 -1,-1 v -4 c 0,-0.552285 0.447715,-1 1,-1 0.552285,0 1,0.447715 1,1 v 4 c 0,0.552285 -0.447715,1 -1,1 z"
         id="path29" />
      <path
         d="m 59,53 c -0.552285,0 -1,-0.447715 -1,-1 v -4 c 0,-0.552285 0.447715,-1 1,-1 0.552285,0 1,0.447715 1,1 v 4 c 0,0.552285 -0.447715,1 -1,1 z"
         id="path31" />
      <path
         d="m 59,41 c -0.552285,0 -1,-0.447715 -1,-1 v -4 c 0,-0.552285 0.447715,-1 1,-1 0.552285,0 1,0.447715 1,1 v 4 c 0,0.552285 -0.447715,1 -1,1 z"
         id="path33" />
      <path
         d="m 50,60 h -4 c -0.552285,0 -1,-0.447715 -1,-1 0,-0.552285 0.447715,-1 1,-1 h 4 c 0.552285,0 1,0.447715 1,1 0,0.552285 -0.447715,1 -1,1 z"
         id="path35" />
      <path
         d="m 21,41 c -0.552285,0 -1,-0.447715 -1,-1 v -4 c 0,-0.552285 0.447715,-1 1,-1 0.552285,0 1,0.447715 1,1 v 4 c 0,0.552285 -0.447715,1 -1,1 z"
         id="path37" />
      <path
         d="m 50,30 h -4 c -0.552285,0 -1,-0.447715 -1,-1 0,-0.552285 0.447715,-1 1,-1 h 4 c 0.552285,0 1,0.447715 1,1 0,0.552285 -0.447715,1 -1,1 z"
         id="path39" />
    </g>
  </g>
</svg>
